<?xml version="1.0" standalone="no"?><!DOCTYPE svg PUBLIC "-//W3C//DTD SVG 1.1//EN" "http://www.w3.org/Graphics/SVG/1.1/DTD/svg11.dtd"><svg t="1685264901171" class="icon" viewBox="0 0 1024 1024" version="1.1" xmlns="http://www.w3.org/2000/svg" p-id="31408" xmlns:xlink="http://www.w3.org/1999/xlink" width="200" height="200"><path d="M713.6 413.4c0 12-9.7 21.7-21.7 21.7s-21.7-9.7-21.7-21.7c0-17.7-14.4-32.1-32.1-32.1-17.7 0-32.2 14.4-32.2 32.1 0 12-9.7 21.7-21.7 21.7s-21.7-9.7-21.7-21.7c0-41.6 33.9-75.5 75.6-75.5 41.7 0 75.5 33.9 75.5 75.5z m-391.6-0.3c0-41.6 33.9-75.5 75.6-75.5 41.6 0 75.5 33.9 75.5 75.5 0 12-9.7 21.7-21.7 21.7s-21.7-9.7-21.7-21.7c0-17.7-14.4-32.1-32.1-32.1-17.8 0-32.2 14.4-32.2 32.1 0 12-9.7 21.7-21.7 21.7s-21.7-9.7-21.7-21.7zM638.1 512c-19.5 0-35.4-15.9-35.4-35.4s15.9-35.4 35.4-35.4 35.4 15.9 35.4 35.4-15.9 35.4-35.4 35.4z m-205.2-35.4c0 19.6-15.9 35.4-35.4 35.4s-35.4-15.9-35.4-35.4 15.9-35.4 35.4-35.4c19.6 0 35.4 15.8 35.4 35.4z m275.3 191.6c0 16.7-13.6 30.2-30.2 30.2H346c-16.7 0-30.2-13.5-30.2-30.2S329.3 638 346 638h332c16.7 0 30.2 13.5 30.2 30.2zM249.1 476.6s4.7 34.4-26.2 38.6c0 0-31.7 4.6-36.1-27.3 0 0-2-14.5 6.4-31.6 0 0 7.5-15 8-39.2-0.2 0.1 43.8 30 47.9 59.5z m454.3-229.7c10.6 15.8 10.6 30.5 10.6 30.5 0 32.2-32.1 31.9-32.1 31.9-31.2 0-31.2-34.7-31.2-34.7 0-29.8 39.5-65.4 39.5-65.4 3.8 23.9 13.2 37.7 13.2 37.7z m138.4 308c0 32.2-32 31.9-32 31.9-31.3 0-31.3-34.7-31.3-34.7 0-29.8 39.5-65.4 39.5-65.4 3.8 23.9 13.2 37.7 13.2 37.7 10.6 15.8 10.6 30.5 10.6 30.5z m-38 407.1H220.2C133 962 62 891 62 803.8V220.2C62 133 133 62 220.2 62h583.5C891 62 962 133 962 220.2v583.5C962 891 891 962 803.8 962zM220.2 136.5c-46.2 0-83.8 37.5-83.8 83.7v583.6c0 46.2 37.6 83.8 83.8 83.8h583.5c46.2 0 83.8-37.6 83.8-83.8V220.2c0-46.2-37.6-83.8-83.8-83.8H220.2v0.1z m0 0" p-id="31409"></path></svg>