<?xml version="1.0" standalone="no"?><!DOCTYPE svg PUBLIC "-//W3C//DTD SVG 1.1//EN" "http://www.w3.org/Graphics/SVG/1.1/DTD/svg11.dtd"><svg t="1685264887302" class="icon" viewBox="0 0 1024 1024" version="1.1" xmlns="http://www.w3.org/2000/svg" p-id="30961" xmlns:xlink="http://www.w3.org/1999/xlink" width="200" height="200"><path d="M521.2 593.1c-89.4 0-168 50.1-200.2 127.6-5.5 13.3 0.8 28.5 14.1 34 3.3 1.4 6.6 2 10 2 10.2 0 19.9-6.1 24.1-16.1 12-28.9 32.8-52.7 59.1-69.3v39.4c0 26.9 20 48.7 44.5 48.7 20.8 0 38.3-15.7 43.1-36.8 4.9 21.1 22.3 36.8 43.1 36.8 24.5 0 44.5-21.9 44.5-48.7v-44.8c30.5 16.7 55 42.5 69 74.8 5.7 13.2 21.1 19.3 34.2 13.5 13.2-5.7 19.3-21 13.6-34.2-33.5-77.1-111.6-126.9-199.1-126.9z m-30.8 117.6c0 10.7-7.9 19.3-17.6 19.3-9.7 0-17.6-8.6-17.6-19.3v-53c10.6-4.2 21.7-7.4 33.3-9.6 1.2 2.7 2 5.6 2 8.8v53.8h-0.1z m86.2 0c0 10.7-7.9 19.3-17.6 19.3-9.7 0-17.6-8.6-17.6-19.3V657c0-3.8 1.1-7.3 2.8-10.3 11.1 1.4 21.9 4 32.2 7.5 0.1 0.9 0.3 1.9 0.3 2.8v53.7h-0.1zM370.9 394.3c15.3 0 27.8 12.5 27.8 27.8 0 15.4-12.5 27.8-27.8 27.8s-27.8-12.5-27.8-27.8c0-15.4 12.4-27.8 27.8-27.8z m279.5 0c15.3 0 27.8 12.5 27.8 27.8 0 15.4-12.5 27.8-27.8 27.8s-27.8-12.5-27.8-27.8c0-15.4 12.5-27.8 27.8-27.8zM803.8 62H220.2C133 62 62 133 62 220.2v583.5C62 891 133 962 220.2 962h583.5C891 962 962 891 962 803.8V220.2C962 133 891 62 803.8 62z m-583.6 74.5h583.5c46.2 0 83.8 37.6 83.8 83.8v110.6L761.3 389c-14.2-47.1-57.8-81.5-109.4-81.5-54.6 0-100.4 38.5-111.6 89.8h-58c-11.3-51.2-57-89.5-111.5-89.5-51.4 0-94.9 34.1-109.3 80.8l-125.1-58.4v-110c0.1-46.2 37.6-83.7 83.8-83.7z m510.6 285.3c0 43.5-35.4 78.9-78.9 78.9-43.5 0-78.9-35.4-78.9-78.9 0-43.5 35.4-78.9 78.9-78.9 43.5 0 78.9 35.4 78.9 78.9z m-281.1 0.3c0 43.5-35.4 78.9-78.9 78.9-43.5 0-78.9-35.4-78.9-78.9 0-43.5 35.4-78.9 78.9-78.9 43.5 0 78.9 35.4 78.9 78.9z m354.1 465.4H220.2c-46.2 0-83.8-37.5-83.8-83.7v-440l120.2 56.1c0 0.7-0.1 1.4-0.1 2.2 0 63 51.2 114.3 114.3 114.3 61.7 0 112-49.2 114.1-110.4h52.9c2.2 61 52.5 110 114.1 110 63 0 114.3-51.2 114.3-114.3 0-1.2-0.1-2.4-0.2-3.6l121.5-56v441.5c0 46.4-37.5 83.9-83.7 83.9z m0 0" p-id="30962"></path></svg>