<?xml version="1.0" standalone="no"?><!DOCTYPE svg PUBLIC "-//W3C//DTD SVG 1.1//EN" "http://www.w3.org/Graphics/SVG/1.1/DTD/svg11.dtd"><svg t="1685264916621" class="icon" viewBox="0 0 1024 1024" version="1.1" xmlns="http://www.w3.org/2000/svg" p-id="32153" xmlns:xlink="http://www.w3.org/1999/xlink" width="200" height="200"><path d="M404.5 750.9h215.1c10.8 0 19.5 13.5 19.5 30.2s-8.8 30.2-19.5 30.2H404.5c-10.8 0-19.5-13.5-19.5-30.2-0.1-16.7 8.7-30.2 19.5-30.2zM266 505.8c-10.5-9.8-11.1-26.4-1.2-36.9 9.8-10.5 26.2-11.2 36.9-1.2 28.2 26.5 57.2 2.1 60.4-0.8 9.6-8.6 23.8-8.8 33.6-1.1 1.1 0.9 2.2 1.9 3.3 3.1 9.6 10.7 8.7 27.2-2 36.8-23.3 20.8-80.1 47.7-131 0.1z m360.2-0.3c-10.5-9.8-11-26.4-1.2-36.9 9.8-10.6 26.2-11.2 36.9-1.2 28.2 26.5 57.2 2.1 60.4-0.8 9.6-8.6 23.8-8.8 33.6-1 1.2 0.9 2.2 2 3.3 3.1 9.6 10.8 8.7 27.2-2 36.9-23.3 20.6-80.1 47.5-131-0.1zM803.8 962H220.2C133 962 62 891 62 803.8V220.2C62 133 133 62 220.2 62h583.5C891 62 962 133 962 220.2v583.5C962 891 891 962 803.8 962zM220.2 136.5c-46.2 0-83.8 37.6-83.8 83.8v583.5c0 46.2 37.6 83.8 83.8 83.8h583.5c46.2 0 83.8-37.6 83.8-83.8V220.2c0-46.2-37.6-83.8-83.8-83.8H220.2v0.1z m0 0" p-id="32154"></path></svg>