<?xml version="1.0" standalone="no"?><!DOCTYPE svg PUBLIC "-//W3C//DTD SVG 1.1//EN" "http://www.w3.org/Graphics/SVG/1.1/DTD/svg11.dtd"><svg t="1685264904811" class="icon" viewBox="0 0 1024 1024" version="1.1" xmlns="http://www.w3.org/2000/svg" p-id="31557" xmlns:xlink="http://www.w3.org/1999/xlink" width="200" height="200"><path d="M750.9 387.4c0 15.1-12.2 27.3-27.3 27.3h-43.2c-9.4 15.9-26.6 26.5-46.3 26.5-29.7 0-53.8-24.1-53.9-53.8 0-29.7 24.1-53.8 53.9-53.8 19.7 0 36.9 10.6 46.3 26.5h43.2c15.1 0 27.3 12.2 27.3 27.3z m-407.2 27.3h-43.3c-15.1 0-27.3-12.2-27.3-27.3 0-15.1 12.2-27.3 27.3-27.3h43.3c9.4-15.9 26.6-26.5 46.3-26.5 29.7 0 53.8 24.1 53.8 53.8 0 29.7-24.1 53.8-53.8 53.8-19.7 0-36.9-10.7-46.3-26.5z m370.8 260.9c-3.3 7.1-34.1 69.4-92.5 73.6-2 0.2-4.1 0.2-6.1 0.2-36.6 0-72.1-23.8-105.7-70.8-17-23.8-43-51.9-71.3-51.9h-1.2c-31.9 0.9-60.6 36.9-69 50.6-5.9 9.7-19.8 13.5-31.2 8.4-11.3-5-15.7-17-9.8-26.8 1.7-2.8 42.9-70 108.2-72 41-1.3 79.2 22.5 113.6 70.8 24.9 34.8 49.2 53.4 68.7 51.8 23.9-1.8 46.4-33.6 53.5-48.8 4.8-10.2 18.2-15.2 30.1-11 11.8 4.2 17.5 15.8 12.7 25.9zM803.8 962H220.2C133 962 62 891 62 803.8V220.2C62 133 133 62 220.2 62h583.5C891 62 962 133 962 220.2v583.5C962 891 891 962 803.8 962zM220.2 136.5c-46.2 0-83.8 37.5-83.8 83.7v583.6c0 46.2 37.6 83.8 83.8 83.8h583.5c46.2 0 83.8-37.6 83.8-83.8V220.2c0-46.2-37.6-83.8-83.8-83.8H220.2v0.1z m0 0" p-id="31558"></path></svg>