<?xml version="1.0" standalone="no"?><!DOCTYPE svg PUBLIC "-//W3C//DTD SVG 1.1//EN" "http://www.w3.org/Graphics/SVG/1.1/DTD/svg11.dtd"><svg t="1685264979463" class="icon" viewBox="0 0 1024 1024" version="1.1" xmlns="http://www.w3.org/2000/svg" p-id="34336" xmlns:xlink="http://www.w3.org/1999/xlink" width="200" height="200"><path d="M449.5 837.9c27.2 8.2 54.8 12 81.8 12 123.2 0 237.2-80.3 274.3-204.2l-233.7 9.1-122.4 183.1z m92.8-23.1c-3.6 0.2-7.3 0.4-11 0.4-8 0-16.1-0.4-24.1-1.2l35.1-52.5v53.3z m179.4-131l31.3-1.2c-8.8 16.2-19.4 31.2-31.3 45v-43.8z m-76.7 3l50.6-2v68.7c-15.4 13.3-32.4 24.9-50.6 34.2V686.8z m-26 1V799c-16.3 6.2-33.2 10.6-50.6 13.3v-89.7l22.6-33.8 28-1z m-13.8-233.9c-10.7-10.7-10.7-28 0-38.7l82.1-82c10.6-10.7 28-10.7 38.6 0 10.7 10.6 10.7 28 0 38.6l-82 82.1c-10.8 10.7-28 10.7-38.7 0z m122.4 20.6c0 19.6-15.8 35.4-35.4 35.4s-35.4-15.9-35.4-35.4 15.9-35.4 35.4-35.4 35.4 15.9 35.4 35.4z m-308.8-59.2c10.7 10.7 10.7 28 0 38.6-10.6 10.7-28 10.7-38.6 0l-82.1-82c-10.6-10.7-10.6-28 0-38.7 10.7-10.6 28-10.6 38.6 0l82.1 82.1z m-51.7 59.2c0 19.6-15.9 35.4-35.4 35.4-19.6 0-35.4-15.9-35.4-35.4s15.9-35.4 35.4-35.4c19.6 0 35.4 15.9 35.4 35.4zM803.8 962H220.2C133 962 62 891 62 803.8V220.2C62 133 133 62 220.2 62h583.5C891 62 962 133 962 220.2v583.5C962 891 891 962 803.8 962zM220.2 136.5c-46.2 0-83.8 37.5-83.8 83.7v583.6c0 46.2 37.6 83.8 83.8 83.8h583.5c46.2 0 83.8-37.6 83.8-83.8V220.2c0-46.2-37.6-83.8-83.8-83.8H220.2v0.1z m0 0" p-id="34337" fill="#13227a"></path></svg>