<?xml version="1.0" standalone="no"?><!DOCTYPE svg PUBLIC "-//W3C//DTD SVG 1.1//EN" "http://www.w3.org/Graphics/SVG/1.1/DTD/svg11.dtd"><svg t="1685264920110" class="icon" viewBox="0 0 1024 1024" version="1.1" xmlns="http://www.w3.org/2000/svg" p-id="32302" xmlns:xlink="http://www.w3.org/1999/xlink" width="200" height="200"><path d="M327.2 376.9c-1.6-1.6-2.2-4-1.4-6.2 0.7-2.2 2.6-3.8 4.9-4.1l40-6.1 17.9-38.2c1-2.1 3.2-3.5 5.5-3.5 2.4 0 4.5 1.4 5.6 3.5l17.9 38.2 40 6.1c2.2 0.3 4.1 2 4.9 4.1 0.7 2.2 0.2 4.5-1.4 6.2L432 406.7l6.9 42.2c0.4 2.3-0.6 4.6-2.5 6-1.1 0.7-2.3 1.1-3.5 1.1-1 0-2-0.3-3-0.8l-35.6-19.7-35.7 19.7c-2 1.2-4.5 1-6.4-0.3-1.9-1.4-2.9-3.7-2.5-6l6.9-42.2-29.4-29.8z m244 0c-1.6-1.6-2.1-4-1.4-6.2 0.7-2.2 2.6-3.8 4.9-4.1l40-6.1 17.9-38.2c1-2.1 3.1-3.5 5.5-3.5s4.5 1.4 5.5 3.5l17.9 38.2 40 6.1c2.3 0.3 4.2 2 4.9 4.1 0.7 2.2 0.2 4.5-1.4 6.2l-29.1 29.8 6.9 42.2c0.3 2.3-0.6 4.6-2.5 6-1 0.7-2.3 1.1-3.5 1.1-1 0-2-0.3-2.9-0.8l-35.7-19.7-35.6 19.7c-2 1.2-4.5 1-6.5-0.3-1.9-1.4-2.9-3.7-2.5-6l6.9-42.2-29.3-29.8z m162.3 204.8c2.3 3.5 2.7 7.9 1 11.8-37.2 86-124.3 141.5-221.9 141.5-99.7 0-187.3-55.8-223.2-142.2-1.6-3.9-1.2-8.2 1.1-11.7 2.3-3.4 6.2-5.6 10.3-5.6l422.1 0.6c4.4 0 8.3 2.2 10.6 5.6zM803.8 962H220.2C133 962 62 891 62 803.8V220.2C62 133 133 62 220.2 62h583.5C891 62 962 133 962 220.2v583.5C962 891 891 962 803.8 962zM220.2 136.5c-46.2 0-83.8 37.6-83.8 83.8v583.5c0 46.2 37.6 83.8 83.8 83.8h583.5c46.2 0 83.8-37.6 83.8-83.8V220.2c0-46.2-37.6-83.8-83.8-83.8H220.2v0.1z m0 0" p-id="32303" fill="#1296db"></path></svg>