<?xml version="1.0" standalone="no"?><!DOCTYPE svg PUBLIC "-//W3C//DTD SVG 1.1//EN" "http://www.w3.org/Graphics/SVG/1.1/DTD/svg11.dtd"><svg t="1685264910636" class="icon" viewBox="0 0 1024 1024" version="1.1" xmlns="http://www.w3.org/2000/svg" p-id="31855" xmlns:xlink="http://www.w3.org/1999/xlink" width="200" height="200"><path d="M605.2 447.7c-10.6-10.7-10.6-28 0-38.6l82.1-82.1c10.7-10.7 28-10.7 38.6 0 10.6 10.7 10.6 28 0 38.6l-82 82.1c-10.8 10.7-28 10.7-38.7 0z m122.5 20.6c0 19.6-15.9 35.4-35.4 35.4s-35.4-15.9-35.4-35.4 15.9-35.4 35.4-35.4 35.4 15.9 35.4 35.4zM298.1 365.7c-10.7-10.7-10.7-28 0-38.6 10.7-10.7 28-10.7 38.6 0l82.1 82c10.6 10.7 10.6 28 0 38.7-10.7 10.7-28 10.7-38.7 0l-82-82.1z m33.6 67.2c19.5 0 35.4 15.9 35.4 35.4 0 19.6-15.9 35.4-35.4 35.4s-35.4-15.9-35.4-35.4 15.9-35.4 35.4-35.4z m333.8 116.5H358.6c-40.7 0-73.7 33-73.7 73.7v84.6c0 40.7 33 73.7 73.7 73.7h306.9c40.7 0 73.7-33 73.7-73.7V623c-0.1-40.7-33-73.6-73.7-73.6zM389.8 752.6h-46.2c-11.2-8.2-19.7-19.9-23.7-33.6v-36.3h69.8v69.9h0.1z m0-104.7H320v-36.2c3.9-13.7 12.4-25.5 23.7-33.6h46.2v69.8h-0.1z m104.7 104.7h-69.7v-69.9h69.7v69.9z m0-104.7h-69.7v-69.8h69.7v69.8z m104.8 104.7h-69.7v-69.9h69.7v69.9z m0-104.7h-69.7v-69.8h69.7v69.8zM704 719c-4 13.7-12.4 25.4-23.7 33.6h-46.2v-69.9H704V719z m0-71.1h-69.8v-69.8h46.2c11.3 8.1 19.7 19.9 23.7 33.6v36.2h-0.1zM803.8 962H220.2C133 962 62 891 62 803.8V220.2C62 133 133 62 220.2 62h583.5C891 62 962 133 962 220.2v583.5C962 891 891 962 803.8 962zM220.2 136.5c-46.2 0-83.8 37.6-83.8 83.8v583.5c0 46.2 37.6 83.8 83.8 83.8h583.5c46.2 0 83.8-37.6 83.8-83.8V220.2c0-46.2-37.6-83.8-83.8-83.8H220.2v0.1z m0 0" p-id="31856"></path></svg>