<?xml version="1.0" standalone="no"?><!DOCTYPE svg PUBLIC "-//W3C//DTD SVG 1.1//EN" "http://www.w3.org/Graphics/SVG/1.1/DTD/svg11.dtd"><svg t="1685264947139" class="icon" viewBox="0 0 1024 1024" version="1.1" xmlns="http://www.w3.org/2000/svg" p-id="33618" xmlns:xlink="http://www.w3.org/1999/xlink" width="200" height="200"><path d="M380.2 447.7l-82.1-82.1c-10.7-10.6-10.7-28 0-38.6 10.7-10.7 28-10.7 38.6 0l82.1 82c10.7 10.7 10.7 28 0 38.7-10.7 10.7-28 10.7-38.6 0zM725.9 327c10.6 10.7 10.6 28 0 38.6l-82 82.1c-10.7 10.7-28 10.7-38.7 0-10.6-10.7-10.6-28 0-38.6l82.1-82.1c10.6-10.6 27.9-10.6 38.6 0z m-65.3 334c0 61.2-68.6 111.1-153 111.1-84.3 0-153-49.8-153-111.1 0-61.2 68.7-111.1 153-111.1 84.4 0.1 153 49.9 153 111.1z m143.2 301H220.2C133 962 62 891 62 803.8V220.2C62 133 133 62 220.2 62h583.5C891 62 962 133 962 220.2v583.5C962 891 891 962 803.8 962zM220.2 136.5c-46.2 0-83.8 37.6-83.8 83.8v583.5c0 46.2 37.6 83.8 83.8 83.8h583.5c46.2 0 83.8-37.6 83.8-83.8V220.2c0-46.2-37.6-83.8-83.8-83.8H220.2v0.1z m0 0" p-id="33619" fill="#1bcb05"></path></svg>