<?xml version="1.0" standalone="no"?><!DOCTYPE svg PUBLIC "-//W3C//DTD SVG 1.1//EN" "http://www.w3.org/Graphics/SVG/1.1/DTD/svg11.dtd"><svg t="1685264927989" class="icon" viewBox="0 0 1024 1024" version="1.1" xmlns="http://www.w3.org/2000/svg" p-id="32689" xmlns:xlink="http://www.w3.org/1999/xlink" width="200" height="200"><path d="M711.5 607.8c-33.3 77.1-111.5 127-199 127-89.4 0-168-50.1-200.2-127.6-5.5-13.3 0.8-28.5 14.1-34 3.3-1.4 6.7-2 10-2 10.2 0 19.9 6.1 24 16.1 24.1 58 83.8 95.5 152.1 95.5 66.7 0 126.1-37.5 151.2-95.6 5.7-13.2 21-19.2 34.2-13.5 13.3 5.6 19.3 20.9 13.6 34.1zM962 220.2v583.5C962 891 891 962 803.8 962H220.2C133 962 62 891 62 803.8V220.2C62 133 133 62 220.2 62h583.5C891 62 962 133 962 220.2z m-825.5 0v77.4l124.8 57.6c13.9-47.4 57.8-82.1 109.6-82.1 54.5 0 100.2 38.4 111.5 89.5h58c11.2-51.3 57-89.9 111.5-89.9 51.6 0 95.3 34.4 109.4 81.5l126.2-60.8v-73.2c0-46.2-37.6-83.7-83.8-83.7H220.2c-46.2 0-83.7 37.5-83.7 83.7z m751 583.6V325.1L766 383.5c0 1.2 0.2 2.4 0.2 3.6 0 63-51.3 114.3-114.3 114.3-61.6 0-111.8-49-114-110.1H485c-2 61.2-52.4 110.4-114.1 110.4-63 0-114.3-51.2-114.3-114.3 0-1 0.1-1.9 0.1-2.9l-120.3-55.4v474.7c0 46.2 37.6 83.8 83.8 83.8h583.6c46.2-0.1 83.7-37.6 83.7-83.8z m0 0" p-id="32690" fill="#13227a"></path></svg>