<?xml version="1.0" standalone="no"?><!DOCTYPE svg PUBLIC "-//W3C//DTD SVG 1.1//EN" "http://www.w3.org/Graphics/SVG/1.1/DTD/svg11.dtd"><svg t="1685264973268" class="icon" viewBox="0 0 1024 1024" version="1.1" xmlns="http://www.w3.org/2000/svg" p-id="34056" xmlns:xlink="http://www.w3.org/1999/xlink" width="200" height="200"><path d="M343.6 372.9c0-8.9 3.2-18.3 8.7-25.9 6.3-8.6 14.6-13.4 23.3-13.4 8.7 0 16.9 3.8 22.8 10.2 5.9-6.4 14.1-10.2 22.8-10.2 8.7 0 17 4.8 23.3 13.4 5.6 7.6 8.7 17 8.7 25.9 0 14.2-8.7 30.2-25.9 47.6-12.3 12.4-24.4 21-24.9 21.4-1.2 0.9-2.6 1.2-3.9 1.2-1.4 0-2.7-0.4-3.9-1.2-2.2-1.3-51-35.2-51-69z m173.3 361.9c87.6 0 165.7-49.8 199-127 5.7-13.2-0.4-28.5-13.6-34.2-13.2-5.7-28.5 0.3-34.3 13.6-25.1 58.1-84.4 95.6-151.2 95.6-68.3 0-128-37.5-152.1-95.5-4.2-10-13.9-16.1-24.1-16.1-3.3 0-6.7 0.6-10 2-13.3 5.6-19.6 20.8-14.1 34 32.4 77.5 111 127.6 200.4 127.6zM638.6 442c1.2 0.8 2.5 1.2 3.9 1.2s2.8-0.4 3.9-1.2c0.5-0.4 12.6-9 24.9-21.4 17.2-17.5 25.9-33.5 25.9-47.6 0-8.9-3.2-18.3-8.7-25.9-6.3-8.6-14.6-13.4-23.3-13.4-8.6 0-16.8 3.8-22.8 10.2-5.9-6.4-14.1-10.2-22.8-10.2-8.7 0-17 4.8-23.3 13.4-5.5 7.6-8.7 17-8.7 25.9 0 33.7 48.9 67.6 51 69zM962 803.8V220.2C962 133 891 62 803.8 62H220.2C133 62 62 133 62 220.2v583.5C62 891 133 962 220.2 962h583.5C891 962 962 891 962 803.8zM803.8 136.5c46.2 0 83.8 37.6 83.8 83.8v583.5c0 46.2-37.6 83.8-83.8 83.8H220.2c-46.2 0-83.8-37.6-83.8-83.8V220.2c0-46.2 37.6-83.8 83.8-83.8h583.6v0.1z m0 0" p-id="34057" fill="#f4ea2a"></path></svg>