<?xml version="1.0" standalone="no"?><!DOCTYPE svg PUBLIC "-//W3C//DTD SVG 1.1//EN" "http://www.w3.org/Graphics/SVG/1.1/DTD/svg11.dtd"><svg t="1685264893881" class="icon" viewBox="0 0 1024 1024" version="1.1" xmlns="http://www.w3.org/2000/svg" p-id="31110" xmlns:xlink="http://www.w3.org/1999/xlink" width="200" height="200"><path d="M438 615v23h52.5v-23c0-16.7 13.5-30.2 30.2-30.2s30.2 13.5 30.2 30.2v23H599v-23c0-16.7 13.5-30.2 30.2-30.2s30.2 13.5 30.2 30.2v23h27.3c16.7 0 30.2 13.5 30.2 30.2s-13.5 30.2-30.2 30.2h-27.3v23c0 16.7-13.5 30.2-30.2 30.2S599 738.1 599 721.4v-23h-48.1v23c0 16.7-13.6 30.2-30.2 30.2-16.7 0-30.2-13.5-30.2-30.2v-23H438v23c0 16.7-13.5 30.2-30.2 30.2s-30.2-13.5-30.2-30.2v-23h-23c-16.7 0-30.2-13.5-30.2-30.2s13.5-30.2 30.2-30.2h23v-23c0-16.7 13.5-30.2 30.2-30.2S438 598.3 438 615z m-8.4-210.3c0 29.7-15.9 53.9-35.5 53.9s-35.5-24.1-35.5-53.9c0-29.7 15.9-53.8 35.5-53.8s35.5 24.1 35.5 53.8z m-119.1-66.1c4.4-25.5 27.5-72.3 85.3-67.6 11.9 1 20.8 11.4 19.8 23.4-1 12-11.3 20.9-23.4 19.8-32.1-2.7-38.4 28.2-39 31.7-1.9 10.6-11 18-21.4 18-1.2 0-2.5-0.1-3.7-0.3-11.7-2-19.6-13.3-17.6-25z m292.1 66.1c0-29.7 15.9-53.8 35.5-53.8s35.5 24.1 35.5 53.8c0 29.7-15.9 53.9-35.5 53.9s-35.5-24.1-35.5-53.9z m13.9-110.3c-1-12 7.9-22.4 19.8-23.4 57.8-4.8 80.9 42.1 85.3 67.6 2 11.8-5.9 23-17.7 25.1-1.3 0.2-2.5 0.3-3.7 0.3-10.3 0-19.5-7.5-21.4-18-0.6-3.6-6.9-34.4-39-31.7-12 0.9-22.3-8-23.3-19.9zM803.8 962H220.2C133 962 62 891 62 803.8V220.2C62 133 133 62 220.2 62h583.5C891 62 962 133 962 220.2v583.5C962 891 891 962 803.8 962zM220.2 136.5c-46.2 0-83.8 37.5-83.8 83.7v583.6c0 46.2 37.6 83.8 83.8 83.8h583.5c46.2 0 83.8-37.6 83.8-83.8V220.2c0-46.2-37.6-83.8-83.8-83.8H220.2v0.1z m0 0" p-id="31111"></path></svg>