<?xml version="1.0" standalone="no"?><!DOCTYPE svg PUBLIC "-//W3C//DTD SVG 1.1//EN" "http://www.w3.org/Graphics/SVG/1.1/DTD/svg11.dtd"><svg t="1685264913610" class="icon" viewBox="0 0 1024 1024" version="1.1" xmlns="http://www.w3.org/2000/svg" p-id="32004" xmlns:xlink="http://www.w3.org/1999/xlink" width="200" height="200"><path d="M286.1 658.1s-25.7-99.2 58.2-77c0 0 148.8 80.6 335.4 0 83.9-22.3 58.2 77 58.2 77C690 805.3 512 793.3 512 793.3s-178 12-225.9-135.2z m54.2-270.7c0-29.7 24.1-53.8 53.8-53.8 29.7 0 53.8 24.1 53.8 53.8 0 29.7-24.1 53.8-53.8 53.8-29.8 0-53.8-24.1-53.8-53.8z m244 0c0-29.7 24.1-53.8 53.8-53.8 29.7 0 53.8 24.1 53.8 53.8 0 29.7-24.1 53.8-53.8 53.8-29.7 0-53.8-24.1-53.8-53.8zM803.8 962H220.2C133 962 62 891 62 803.8V220.2C62 133 133 62 220.2 62h583.5C891 62 962 133 962 220.2v583.5C962 891 891 962 803.8 962zM220.2 136.5c-46.2 0-83.8 37.5-83.8 83.7v583.6c0 46.2 37.6 83.8 83.8 83.8h583.5c46.2 0 83.8-37.6 83.8-83.8V220.2c0-46.2-37.6-83.8-83.8-83.8H220.2v0.1z m0 0" p-id="32005"></path></svg>